<svg width="541" height="576" viewBox="0 0 541 576" fill="none" xmlns="http://www.w3.org/2000/svg">
<circle cx="388.533" cy="138.136" r="137.196" fill="url(#paint0_linear_536_755)"/>
<path d="M259.9 314.733V575.713H212.623V314.733H259.9Z" fill="white"/>
<path d="M259.9 314.733V575.713H212.623V314.733H259.9Z" fill="url(#paint1_linear_536_755)"/>
<path d="M404.661 575.715H309.641V314.733H406.578C434.418 314.733 458.333 319.958 478.323 330.408C498.404 340.772 513.83 355.682 524.601 375.136C535.372 394.591 540.757 417.869 540.757 444.969C540.757 472.155 535.326 495.517 524.464 515.057C513.693 534.597 498.13 549.591 477.775 560.041C457.511 570.49 433.14 575.715 404.661 575.715Z" fill="white"/>
<path d="M404.661 575.715H309.641V314.733H406.578C434.418 314.733 458.333 319.958 478.323 330.408C498.404 340.772 513.83 355.682 524.601 375.136C535.372 394.591 540.757 417.869 540.757 444.969C540.757 472.155 535.326 495.517 524.464 515.057C513.693 534.597 498.13 549.591 477.775 560.041C457.511 570.49 433.14 575.715 404.661 575.715Z" fill="url(#paint2_linear_536_755)"/>
<path d="M516.96 138.137C516.96 209.065 459.461 266.563 388.533 266.563C317.605 266.563 260.106 209.065 260.106 138.137C260.106 67.2085 317.605 9.70996 388.533 9.70996C459.461 9.70996 516.96 67.2085 516.96 138.137Z" fill="#1E2B46"/>
<path d="M9.69238 575.715V314.733H56.9698V536.083H171.914V575.715H9.69238Z" fill="white"/>
<path d="M9.69238 575.715V314.733H56.9698V536.083H171.914V575.715H9.69238Z" fill="url(#paint3_linear_536_755)"/>
<path d="M173.663 82.1435C172.299 71.0144 166.553 62.3491 156.425 56.1473C146.394 49.9456 133.344 46.8448 117.274 46.8448C105.977 46.8448 96.2872 48.3315 88.2039 51.3049C80.1206 54.2783 73.9364 58.3137 69.6513 63.411C65.3662 68.5083 63.1749 74.3277 63.0776 80.8692C63.0776 86.3063 64.4897 91.0213 67.314 95.0142C70.2356 99.0071 74.1799 102.405 79.1467 105.209C84.1136 107.927 89.616 110.221 95.6541 112.09C101.692 113.959 107.779 115.531 113.915 116.805L141.963 122.922C153.26 125.216 164.119 128.316 174.539 132.224C185.057 136.132 194.455 141.06 202.733 147.007C211.109 152.953 217.731 160.132 222.601 168.543C227.47 176.953 229.905 186.808 229.905 198.107C229.905 213.399 225.425 226.864 216.465 238.503C207.505 250.057 194.553 259.104 177.607 265.646C160.759 272.103 140.356 275.331 116.398 275.331C93.122 275.331 72.9138 272.188 55.7734 265.901C38.7303 259.614 25.3881 250.439 15.7466 238.375C6.20244 226.312 1.04083 211.615 0.261719 194.284H53.5821C54.3613 203.374 57.5751 210.935 63.2236 216.967C68.8722 222.999 76.2251 227.501 85.2822 230.475C94.4368 233.448 104.663 234.935 115.96 234.935C127.744 234.935 138.067 233.406 146.929 230.347C155.889 227.204 162.901 222.871 167.965 217.349C173.03 211.742 175.61 205.201 175.708 197.725C175.61 190.928 173.322 185.321 168.842 180.904C164.362 176.401 158.08 172.663 149.997 169.689C142.011 166.631 132.662 163.913 121.949 161.534L87.9117 153.888C63.2723 148.366 43.7946 139.998 29.4784 128.784C15.2596 117.485 8.15022 102.49 8.15022 83.8001C8.15022 68.4233 12.9223 54.958 22.4664 43.4041C32.1079 31.8503 45.2067 22.8875 61.7628 16.5159C78.3189 10.0593 97.0663 6.83105 118.005 6.83105C139.236 6.83105 157.837 10.0593 173.809 16.5159C189.878 22.8875 202.49 31.7653 211.644 43.1492C220.799 54.4482 225.522 67.4463 225.814 82.1435H173.663Z" fill="white"/>
<path d="M173.663 82.1435C172.299 71.0144 166.553 62.3491 156.425 56.1473C146.394 49.9456 133.344 46.8448 117.274 46.8448C105.977 46.8448 96.2872 48.3315 88.2039 51.3049C80.1206 54.2783 73.9364 58.3137 69.6513 63.411C65.3662 68.5083 63.1749 74.3277 63.0776 80.8692C63.0776 86.3063 64.4897 91.0213 67.314 95.0142C70.2356 99.0071 74.1799 102.405 79.1467 105.209C84.1136 107.927 89.616 110.221 95.6541 112.09C101.692 113.959 107.779 115.531 113.915 116.805L141.963 122.922C153.26 125.216 164.119 128.316 174.539 132.224C185.057 136.132 194.455 141.06 202.733 147.007C211.109 152.953 217.731 160.132 222.601 168.543C227.47 176.953 229.905 186.808 229.905 198.107C229.905 213.399 225.425 226.864 216.465 238.503C207.505 250.057 194.553 259.104 177.607 265.646C160.759 272.103 140.356 275.331 116.398 275.331C93.122 275.331 72.9138 272.188 55.7734 265.901C38.7303 259.614 25.3881 250.439 15.7466 238.375C6.20244 226.312 1.04083 211.615 0.261719 194.284H53.5821C54.3613 203.374 57.5751 210.935 63.2236 216.967C68.8722 222.999 76.2251 227.501 85.2822 230.475C94.4368 233.448 104.663 234.935 115.96 234.935C127.744 234.935 138.067 233.406 146.929 230.347C155.889 227.204 162.901 222.871 167.965 217.349C173.03 211.742 175.61 205.201 175.708 197.725C175.61 190.928 173.322 185.321 168.842 180.904C164.362 176.401 158.08 172.663 149.997 169.689C142.011 166.631 132.662 163.913 121.949 161.534L87.9117 153.888C63.2723 148.366 43.7946 139.998 29.4784 128.784C15.2596 117.485 8.15022 102.49 8.15022 83.8001C8.15022 68.4233 12.9223 54.958 22.4664 43.4041C32.1079 31.8503 45.2067 22.8875 61.7628 16.5159C78.3189 10.0593 97.0663 6.83105 118.005 6.83105C139.236 6.83105 157.837 10.0593 173.809 16.5159C189.878 22.8875 202.49 31.7653 211.644 43.1492C220.799 54.4482 225.522 67.4463 225.814 82.1435H173.663Z" fill="#FA684E"/>
<defs>
<linearGradient id="paint0_linear_536_755" x1="388.533" y1="0.94043" x2="388.533" y2="275.332" gradientUnits="userSpaceOnUse">
<stop stop-color="#924AEE"/>
<stop offset="1" stop-color="#AD1FC4"/>
</linearGradient>
<linearGradient id="paint1_linear_536_755" x1="-274.451" y1="-192.201" x2="894.149" y2="-184.483" gradientUnits="userSpaceOnUse">
<stop offset="0.0730971" stop-color="#DA8AFF"/>
<stop offset="0.881488" stop-color="#FF6231"/>
</linearGradient>
<linearGradient id="paint2_linear_536_755" x1="-473.715" y1="-207.877" x2="781.859" y2="-198.968" gradientUnits="userSpaceOnUse">
<stop offset="0.0730971" stop-color="#DA8AFF"/>
<stop offset="0.881488" stop-color="#FF6231"/>
</linearGradient>
<linearGradient id="paint3_linear_536_755" x1="-130.588" y1="-207.877" x2="1038.01" y2="-200.16" gradientUnits="userSpaceOnUse">
<stop offset="0.0730971" stop-color="#DA8AFF"/>
<stop offset="0.881488" stop-color="#FF6231"/>
</linearGradient>
</defs>
</svg>
