<svg width="431" height="43" viewBox="0 0 431 43" fill="none" xmlns="http://www.w3.org/2000/svg">
<path fill-rule="evenodd" clip-rule="evenodd" d="M34.1566 6.45357C34.8711 5.73906 34.8312 4.56207 34.011 3.97185C30.5376 1.47225 26.2754 0 21.6694 0C9.98757 0 0.517578 9.47 0.517578 21.1518C0.517578 25.7579 1.98983 30.02 4.48942 33.4934C5.07965 34.3136 6.25664 34.3535 6.97115 33.639L34.1566 6.45357ZM8.52951 35.3588C7.8335 36.0548 7.84982 37.1955 8.62425 37.803C12.218 40.6225 16.7474 42.3037 21.6694 42.3037C33.3512 42.3037 42.8212 32.8337 42.8212 21.1518C42.8212 16.2298 41.1401 11.7005 38.3206 8.10667C37.713 7.33225 36.5724 7.31592 35.8764 8.01193L8.52951 35.3588Z" fill="white"/>
<path fill-rule="evenodd" clip-rule="evenodd" d="M47.9662 29.1833C47.6402 29.5093 47.457 29.9515 47.457 30.4126V40.5651C47.457 41.5253 48.2354 42.3037 49.1955 42.3037H58.1065C58.5676 42.3037 59.0097 42.1205 59.3358 41.7945L67.4486 33.6816C68.1275 33.0027 69.2283 33.0027 69.9072 33.6816L78.0201 41.7945C78.3461 42.1205 78.7883 42.3037 79.2494 42.3037H88.0222C88.9823 42.3037 89.7607 41.5253 89.7607 40.5651V30.2745C89.7607 29.8134 89.5775 29.3712 89.2515 29.0452L82.8772 22.6709C82.1983 21.992 82.1983 20.8912 82.8772 20.2123L89.2515 13.838C89.5775 13.5119 89.7607 13.0697 89.7607 12.6087V1.73851C89.7607 0.778356 88.9823 0 88.0222 0H79.3875C78.9264 0 78.4842 0.183163 78.1581 0.509197L69.9072 8.76011C69.2283 9.43904 68.1275 9.43904 67.4486 8.76011L59.1977 0.509197C58.8717 0.183164 58.4295 0 57.9684 0H49.1955C48.2354 0 47.457 0.778356 47.457 1.73851V12.4705C47.457 12.9316 47.6402 13.3738 47.9662 13.6998L54.4787 20.2123C55.1576 20.8912 55.1576 21.992 54.4787 22.6709L47.9662 29.1833Z" fill="white"/>
<path fill-rule="evenodd" clip-rule="evenodd" d="M118.737 15.0671C118.737 14.427 118.218 13.9081 117.578 13.9081H98.8002C97.1999 13.9081 95.9026 12.6108 95.9026 11.0105V2.89751C95.9026 1.29726 97.1999 0 98.8002 0H123.151C129.552 0 134.741 5.18904 134.741 11.59V30.7136C134.741 37.1146 129.552 42.3037 123.151 42.3037H98.4542C96.8539 42.3037 95.5566 41.0064 95.5566 39.4061V33.0316C95.5566 31.4314 96.8539 30.1341 98.4542 30.1341H118.157C118.797 30.1341 119.316 29.6152 119.316 28.9751V28.9751C119.316 28.335 118.797 27.8161 118.157 27.8161H104.829C103.228 27.8161 101.931 26.5188 101.931 24.9186V19.1236C101.931 17.5233 103.228 16.2261 104.829 16.2261H117.578C118.218 16.2261 118.737 15.7072 118.737 15.0671V15.0671Z" fill="white"/>
<path d="M158.31 37.2703C157.381 37.2703 156.585 36.9438 155.922 36.2907C155.258 35.6376 154.932 34.8417 154.942 33.9029C154.932 32.9845 155.258 32.1988 155.922 31.5457C156.585 30.8926 157.381 30.5661 158.31 30.5661C159.208 30.5661 159.988 30.8926 160.651 31.5457C161.325 32.1988 161.667 32.9845 161.677 33.9029C161.667 34.5254 161.504 35.0917 161.187 35.6019C160.881 36.1121 160.473 36.5203 159.963 36.8264C159.463 37.1224 158.912 37.2703 158.31 37.2703ZM201.92 14.2035C201.777 12.8668 201.175 11.8259 200.114 11.081C199.063 10.3361 197.695 9.96363 196.012 9.96363C194.828 9.96363 193.813 10.1422 192.966 10.4994C192.119 10.8565 191.471 11.3412 191.022 11.9535C190.573 12.5657 190.343 13.2647 190.333 14.0505C190.333 14.7035 190.481 15.2699 190.777 15.7495C191.083 16.2291 191.496 16.6372 192.017 16.974C192.537 17.3005 193.114 17.576 193.746 17.8005C194.379 18.025 195.017 18.2138 195.66 18.3669L198.598 19.1016C199.782 19.3771 200.92 19.7496 202.012 20.219C203.114 20.6883 204.099 21.2802 204.966 21.9945C205.843 22.7088 206.537 23.5711 207.048 24.5813C207.558 25.5915 207.813 26.7752 207.813 28.1324C207.813 29.9692 207.344 31.5865 206.405 32.9845C205.466 34.3723 204.109 35.4591 202.333 36.2448C200.568 37.0203 198.43 37.4081 195.92 37.4081C193.481 37.4081 191.364 37.0305 189.568 36.2754C187.782 35.5203 186.384 34.4182 185.374 32.9692C184.374 31.5202 183.833 29.7549 183.751 27.6732H189.338C189.42 28.7651 189.756 29.6732 190.348 30.3977C190.94 31.1222 191.711 31.6631 192.66 32.0202C193.619 32.3774 194.69 32.5559 195.874 32.5559C197.109 32.5559 198.19 32.3723 199.119 32.0049C200.058 31.6274 200.792 31.1069 201.323 30.4437C201.854 29.7702 202.124 28.9844 202.134 28.0865C202.124 27.2701 201.884 26.5966 201.415 26.066C200.945 25.5252 200.287 25.0762 199.44 24.719C198.604 24.3517 197.624 24.0252 196.501 23.7394L192.935 22.821C190.353 22.1578 188.313 21.1526 186.812 19.8057C185.323 18.4485 184.578 16.6474 184.578 14.4025C184.578 12.5555 185.078 10.9381 186.078 9.55036C187.088 8.16257 188.46 7.08602 190.195 6.3207C191.93 5.54517 193.894 5.15741 196.088 5.15741C198.313 5.15741 200.262 5.54517 201.935 6.3207C203.619 7.08602 204.94 8.15237 205.9 9.51974C206.859 10.8769 207.354 12.4382 207.384 14.2035H201.92ZM228.739 10.3463V5.58599H253.75V10.3463H244.061V36.9336H238.428V10.3463H228.739ZM295.573 5.58599H301.252V26.066C301.252 28.311 300.721 30.2855 299.66 31.9896C298.609 33.6937 297.129 35.0254 295.221 35.9846C293.313 36.9336 291.083 37.4081 288.532 37.4081C285.971 37.4081 283.736 36.9336 281.828 35.9846C279.92 35.0254 278.44 33.6937 277.389 31.9896C276.338 30.2855 275.813 28.311 275.813 26.066V5.58599H281.491V25.5915C281.491 26.8977 281.777 28.061 282.348 29.0814C282.93 30.1018 283.746 30.9029 284.797 31.4845C285.849 32.0559 287.093 32.3417 288.532 32.3417C289.971 32.3417 291.216 32.0559 292.267 31.4845C293.328 30.9029 294.145 30.1018 294.716 29.0814C295.287 28.061 295.573 26.8977 295.573 25.5915V5.58599ZM335.288 36.9336H324.665V5.58599H335.502C338.615 5.58599 341.288 6.21355 343.523 7.46868C345.768 8.7136 347.492 10.5045 348.697 12.8412C349.901 15.178 350.503 17.974 350.503 21.2292C350.503 24.4946 349.896 27.3007 348.681 29.6477C347.477 31.9947 345.737 33.7958 343.462 35.0509C341.196 36.306 338.472 36.9336 335.288 36.9336ZM330.344 32.0202H335.013C337.196 32.0202 339.018 31.6223 340.477 30.8263C341.936 30.0202 343.033 28.8212 343.768 27.2293C344.503 25.6272 344.87 23.6272 344.87 21.2292C344.87 18.8312 344.503 16.8413 343.768 15.2597C343.033 13.6678 341.946 12.479 340.508 11.6933C339.079 10.8973 337.303 10.4994 335.181 10.4994H330.344V32.0202ZM378.818 5.58599V36.9336H373.139V5.58599H378.818ZM430.219 21.2598C430.219 24.6374 429.587 27.5303 428.321 29.9385C427.066 32.3366 425.352 34.1733 423.178 35.4489C421.015 36.7244 418.561 37.3622 415.816 37.3622C413.071 37.3622 410.612 36.7244 408.438 35.4489C406.275 34.1631 404.561 32.3213 403.295 29.9232C402.04 27.515 401.413 24.6272 401.413 21.2598C401.413 17.8822 402.04 14.9944 403.295 12.5963C404.561 10.1881 406.275 8.34625 408.438 7.07071C410.612 5.79517 413.071 5.15741 415.816 5.15741C418.561 5.15741 421.015 5.79517 423.178 7.07071C425.352 8.34625 427.066 10.1881 428.321 12.5963C429.587 14.9944 430.219 17.8822 430.219 21.2598ZM424.51 21.2598C424.51 18.8822 424.138 16.877 423.393 15.2444C422.658 13.6015 421.638 12.3616 420.331 11.5249C419.025 10.6779 417.52 10.2545 415.816 10.2545C414.112 10.2545 412.607 10.6779 411.301 11.5249C409.995 12.3616 408.969 13.6015 408.224 15.2444C407.489 16.877 407.122 18.8822 407.122 21.2598C407.122 23.6374 407.489 25.6476 408.224 27.2905C408.969 28.9232 409.995 30.163 411.301 31.01C412.607 31.8468 414.112 32.2651 415.816 32.2651C417.52 32.2651 419.025 31.8468 420.331 31.01C421.638 30.163 422.658 28.9232 423.393 27.2905C424.138 25.6476 424.51 23.6374 424.51 21.2598Z" fill="white" fill-opacity="0.6"/>
</svg>
